<?xml version="1.0" standalone="no"?>
<!DOCTYPE svg PUBLIC "-//W3C//DTD SVG 20010904//EN"
 "http://www.w3.org/TR/2001/REC-SVG-20010904/DTD/svg10.dtd">
<svg version="1.0" xmlns="http://www.w3.org/2000/svg"
 width="1024.000000pt" height="1024.000000pt" viewBox="0 0 1024.000000 1024.000000"
 preserveAspectRatio="xMidYMid meet">
<metadata>
Created by potrace 1.14, written by Peter Selinger 2001-2017
</metadata>
<g transform="translate(0.000000,1024.000000) scale(0.100000,-0.100000)"
fill="#000000" stroke="none">
<path d="M0 5120 l0 -5120 5120 0 5120 0 0 5120 0 5120 -5120 0 -5120 0 0
-5120z m5262 3758 c79 -36 142 -98 181 -177 l32 -66 3 -483 c2 -412 1 -492
-13 -544 -46 -180 -228 -301 -402 -269 -84 15 -134 41 -192 99 -58 58 -89 121
-102 205 -6 38 -9 249 -7 523 3 452 4 460 26 516 39 97 130 183 225 214 65 21
181 13 249 -18z m-2902 -1210 c44 -22 123 -95 401 -375 402 -404 394 -393 394
-548 0 -89 -3 -106 -28 -156 -32 -66 -100 -132 -163 -160 -105 -47 -246 -32
-349 36 -27 19 -199 184 -382 367 -324 326 -332 334 -348 392 -23 79 -17 212
12 278 36 79 130 159 223 189 14 5 61 7 105 6 64 -2 91 -7 135 -29z m5812 -1
c178 -87 248 -319 151 -499 -17 -32 -132 -150 -359 -370 -399 -387 -393 -383
-558 -383 -101 0 -115 2 -162 27 -68 36 -112 81 -143 148 -23 48 -26 68 -26
155 0 159 -5 153 384 547 183 185 348 347 367 359 61 37 113 49 205 46 69 -2
96 -8 141 -30z m-2802 -1047 c589 -72 1139 -387 1490 -855 298 -398 443 -829
443 -1320 0 -343 -64 -627 -205 -908 -32 -64 -45 -81 -73 -93 -28 -11 -103
-14 -384 -14 -203 0 -360 4 -375 10 -33 12 -33 37 -2 81 148 205 200 298 251
452 60 181 70 249 70 477 0 228 -10 296 -70 477 -74 222 -191 401 -377 578
-223 213 -474 341 -763 391 -131 22 -386 23 -510 1 -471 -83 -881 -393 -1090
-822 -136 -279 -175 -619 -109 -941 41 -199 158 -443 286 -596 49 -58 48 -88
-1 -100 -18 -5 -194 -8 -390 -6 -292 2 -360 6 -378 18 -46 30 -153 302 -196
501 -40 180 -51 290 -51 499 1 220 18 365 64 546 108 418 351 811 675 1091
332 287 733 472 1145 527 126 17 433 20 550 6z m-40 -1177 c186 -37 359 -128
505 -265 191 -181 298 -396 324 -658 51 -495 -269 -966 -751 -1104 -553 -159
-1134 164 -1292 716 -159 554 164 1135 719 1293 161 46 327 52 495 18z m-3412
-652 c120 -18 210 -84 261 -191 22 -47 26 -68 26 -151 0 -90 -2 -100 -35 -164
-25 -49 -51 -82 -88 -112 -91 -74 -91 -74 -663 -71 l-504 3 -55 26 c-77 37
-144 100 -177 167 -25 51 -28 68 -28 152 1 114 23 168 97 243 56 56 113 84
195 96 79 12 893 13 971 2z m7349 0 c129 -19 230 -91 282 -200 22 -47 26 -70
26 -141 0 -76 -4 -93 -33 -152 -37 -77 -90 -128 -172 -167 l-55 -26 -525 0
-525 0 -51 27 c-66 35 -147 124 -168 185 -35 102 -29 218 16 306 44 87 138
152 242 167 74 11 890 11 963 1z m-264 -2113 c77 -36 150 -112 177 -185 31
-82 25 -206 -13 -279 -35 -68 -104 -136 -175 -171 l-57 -28 -3820 0 -3820 0
-59 30 c-75 38 -158 129 -187 204 -17 45 -20 72 -17 136 8 149 97 266 234 308
43 14 474 15 3864 14 l3815 -2 58 -27z"/>
</g>
</svg>
